<svg viewBox="0 0 200 200" xmlns="http://www.w3.org/2000/svg">
  <path fill="#FBB13C" d="M44.2,-75C55.3,-70,61.3,-54.4,64.3,-40.1C67.3,-25.8,67.5,-12.9,66.9,-0.4C66.2,12.2,64.8,24.4,61.3,37.8C57.7,51.1,52,65.6,41.4,70.7C30.8,75.9,15.4,71.7,2.1,68C-11.1,64.3,-22.3,61.1,-34.5,56.9C-46.6,52.7,-59.8,47.4,-65.3,37.7C-70.8,28.1,-68.7,14,-66.1,1.5C-63.6,-11,-60.5,-22.1,-56.7,-34.8C-52.9,-47.4,-48.4,-61.8,-38.8,-67.6C-29.3,-73.5,-14.6,-70.9,0.9,-72.5C16.5,-74.1,33,-79.9,44.2,-75Z" transform="translate(100 100)" />
</svg>