<svg xmlns="http://www.w3.org/2000/svg" xmlns:xlink="http://www.w3.org/1999/xlink" xmlns:fi="http://pattern.flaticon.com/" x="0" y="0" width="1500" height="750" viewBox="0 0 1500 750"><rect x="0px" y="0px" width="100%" height="100%" opacity="0" fill="#252e2b"/><defs><g transform="matrix(0.04677695035934448 0 0 0.04677695035934448 340 165)" id="L1_4"><path d="M47.703,151.47l38.569,10.47c0.492,0.133,0.983,0.195,1.469,0.195c2.458,0,4.716-1.638,5.391-4.132    c0.809-2.98-0.952-6.052-3.932-6.861l-38.569-10.47c-2.97-0.809-6.047,0.952-6.861,3.932    C42.962,147.589,44.718,150.661,47.703,151.47z" fill="#ffffff"/><path d="M213.78,51.016c2.964-0.148,5.335-2.56,5.325-5.56l-0.133-39.967c-0.01-2.939-2.401-5.243-5.192-5.489    c-2.79,0.246-5.181,2.55-5.192,5.489l-0.133,39.967C208.445,48.451,210.816,50.862,213.78,51.016z" fill="#ffffff"/><path d="M108.134,106.045c1.05,0.891,2.335,1.321,3.604,1.321c1.597,0,3.174-0.676,4.275-1.981c1.992-2.36,1.7-5.888-0.66-7.88    L84.823,71.716c-2.371-2.002-5.898-1.69-7.88,0.666c-1.992,2.36-1.7,5.888,0.66,7.88L108.134,106.045z" fill="#ffffff"/><path d="M334.428,158.008c0.676,2.488,2.934,4.132,5.391,4.132c0.486,0,0.978-0.061,1.469-0.195l38.569-10.47    c2.985-0.809,4.741-3.881,3.932-6.861c-0.814-2.985-3.891-4.741-6.861-3.932l-38.569,10.47    C335.38,151.956,333.619,155.028,334.428,158.008z" fill="#ffffff"/><path d="M268.554,67.359c0.758,0.348,1.562,0.517,2.345,0.517c2.115,0,4.137-1.203,5.079-3.251l16.768-36.275    c1.3-2.806,0.077-6.129-2.724-7.424c-2.806-1.3-6.129-0.072-7.424,2.729l-16.768,36.28    C264.53,62.741,265.754,66.063,268.554,67.359z" fill="#ffffff"/><path d="M315.817,107.366c1.275,0,2.555-0.43,3.604-1.321l30.531-25.789c2.36-1.992,2.652-5.524,0.66-7.88    c-1.981-2.355-5.509-2.667-7.885-0.666L312.197,97.5c-2.36,1.992-2.657,5.524-0.66,7.88    C312.648,106.691,314.225,107.366,315.817,107.366z" fill="#ffffff"/><path d="M151.583,64.63c0.947,2.048,2.964,3.251,5.079,3.251c0.783,0,1.582-0.169,2.345-0.517    c2.801-1.295,4.024-4.623,2.724-7.424l-16.768-36.28c-1.295-2.801-4.613-4.029-7.424-2.729c-2.801,1.295-4.024,4.618-2.724,7.424    L151.583,64.63z" fill="#ffffff"/><path d="M347.935,288.159l-32.819-22.82c-2.545-1.761-6.026-1.142-7.788,1.398c-1.766,2.534-1.137,6.021,1.398,7.782l32.819,22.82    c0.978,0.676,2.089,1.003,3.19,1.003c1.771,0,3.512-0.84,4.598-2.401C351.099,293.407,350.469,289.92,347.935,288.159z" fill="#ffffff"/><path d="M213.78,70.313c-58.522,0-105.963,47.442-105.963,105.964c0,57.999,23.619,74.967,47.145,107.889    c15.503,21.693,15.503,46.188,15.503,46.188v50.12h86.605v-50.12h0.026c0,0-0.026-24.499,15.503-46.188    c23.557-32.901,47.145-49.889,47.145-107.889C319.744,117.755,272.302,70.313,213.78,70.313z M224.174,281.359h-20.91v-43.264    c0-7.306-2.519-15.032-4.961-22.508c-2.903-8.888-5.898-18.079-2.708-22.477c2.319-3.2,8.612-4.89,18.186-4.89    c9.6,0,15.882,1.669,18.166,4.823c3.098,4.28,0.118,13.333-2.765,22.088c-2.493,7.588-5.074,15.437-5.074,22.958    C224.107,247.465,224.138,264.474,224.174,281.359z M262.4,276.864c-10.496,14.659-14.822,30.362-16.604,40.95h-2.319v-19.671    c0-6.938-4.214-12.892-10.225-15.447c-0.036-17.316-0.072-34.98-0.072-44.6c0-6.067,2.35-13.215,4.623-20.122    c3.594-10.921,7.306-22.216,1.49-30.249c-4.234-5.852-12.344-8.581-25.518-8.581c-13.148,0-21.258,2.744-25.533,8.632    c-5.903,8.141-2.176,19.574,1.428,30.623c2.222,6.805,4.516,13.834,4.516,19.697v44.662c-5.944,2.581-10.107,8.494-10.107,15.386    v19.671h-2.325c-1.787-10.578-6.113-26.281-16.589-40.94c-4.5-6.298-8.929-11.935-13.21-17.388    c-18.345-23.357-31.596-40.233-31.596-83.205c0-51.512,41.907-93.42,93.42-93.42c51.512,0,93.419,41.907,93.419,93.42    c0,43.023-13.271,59.909-31.642,83.287C271.293,264.991,266.885,270.602,262.4,276.864z" fill="#ffffff"/><path d="M378.783,217.631l-39.383-6.81c-3.036-0.527-5.944,1.516-6.467,4.557c-0.522,3.041,1.516,5.939,4.557,6.467l39.383,6.81    c0.323,0.056,0.645,0.087,0.963,0.087c2.673,0,5.038-1.925,5.504-4.644C383.862,221.051,381.824,218.158,378.783,217.631z" fill="#ffffff"/><path d="M213.78,427.561c11.704,0,21.197-9.492,21.197-21.197h-42.394C192.584,418.074,202.076,427.561,213.78,427.561z" fill="#ffffff"/><path d="M112.445,265.339l-32.819,22.815c-2.534,1.766-3.164,5.248-1.398,7.782c1.085,1.567,2.831,2.401,4.598,2.401    c1.106,0,2.212-0.328,3.19-1.003l32.819-22.82c2.534-1.761,3.164-5.248,1.398-7.782    C118.472,264.197,114.99,263.583,112.445,265.339z" fill="#ffffff"/><path d="M94.628,215.378c-0.522-3.041-3.43-5.084-6.467-4.557l-39.383,6.81c-3.041,0.527-5.079,3.42-4.557,6.467    c0.471,2.719,2.836,4.644,5.504,4.644c0.317,0,0.64-0.026,0.963-0.087l39.383-6.81C93.117,221.312,95.155,218.419,94.628,215.378z    " fill="#ffffff"/></g><g transform="matrix(-0.14033085107803345 0 0 0.14033085107803345 204.99985851562167 232.5)" id="L1_5"><path d="M47.703,151.47l38.569,10.47c0.492,0.133,0.983,0.195,1.469,0.195c2.458,0,4.716-1.638,5.391-4.132    c0.809-2.98-0.952-6.052-3.932-6.861l-38.569-10.47c-2.97-0.809-6.047,0.952-6.861,3.932    C42.962,147.589,44.718,150.661,47.703,151.47z" fill="#ffffff"/><path d="M213.78,51.016c2.964-0.148,5.335-2.56,5.325-5.56l-0.133-39.967c-0.01-2.939-2.401-5.243-5.192-5.489    c-2.79,0.246-5.181,2.55-5.192,5.489l-0.133,39.967C208.445,48.451,210.816,50.862,213.78,51.016z" fill="#ffffff"/><path d="M108.134,106.045c1.05,0.891,2.335,1.321,3.604,1.321c1.597,0,3.174-0.676,4.275-1.981c1.992-2.36,1.7-5.888-0.66-7.88    L84.823,71.716c-2.371-2.002-5.898-1.69-7.88,0.666c-1.992,2.36-1.7,5.888,0.66,7.88L108.134,106.045z" fill="#ffffff"/><path d="M334.428,158.008c0.676,2.488,2.934,4.132,5.391,4.132c0.486,0,0.978-0.061,1.469-0.195l38.569-10.47    c2.985-0.809,4.741-3.881,3.932-6.861c-0.814-2.985-3.891-4.741-6.861-3.932l-38.569,10.47    C335.38,151.956,333.619,155.028,334.428,158.008z" fill="#ffffff"/><path d="M268.554,67.359c0.758,0.348,1.562,0.517,2.345,0.517c2.115,0,4.137-1.203,5.079-3.251l16.768-36.275    c1.3-2.806,0.077-6.129-2.724-7.424c-2.806-1.3-6.129-0.072-7.424,2.729l-16.768,36.28    C264.53,62.741,265.754,66.063,268.554,67.359z" fill="#ffffff"/><path d="M315.817,107.366c1.275,0,2.555-0.43,3.604-1.321l30.531-25.789c2.36-1.992,2.652-5.524,0.66-7.88    c-1.981-2.355-5.509-2.667-7.885-0.666L312.197,97.5c-2.36,1.992-2.657,5.524-0.66,7.88    C312.648,106.691,314.225,107.366,315.817,107.366z" fill="#ffffff"/><path d="M151.583,64.63c0.947,2.048,2.964,3.251,5.079,3.251c0.783,0,1.582-0.169,2.345-0.517    c2.801-1.295,4.024-4.623,2.724-7.424l-16.768-36.28c-1.295-2.801-4.613-4.029-7.424-2.729c-2.801,1.295-4.024,4.618-2.724,7.424    L151.583,64.63z" fill="#ffffff"/><path d="M347.935,288.159l-32.819-22.82c-2.545-1.761-6.026-1.142-7.788,1.398c-1.766,2.534-1.137,6.021,1.398,7.782l32.819,22.82    c0.978,0.676,2.089,1.003,3.19,1.003c1.771,0,3.512-0.84,4.598-2.401C351.099,293.407,350.469,289.92,347.935,288.159z" fill="#ffffff"/><path d="M213.78,70.313c-58.522,0-105.963,47.442-105.963,105.964c0,57.999,23.619,74.967,47.145,107.889    c15.503,21.693,15.503,46.188,15.503,46.188v50.12h86.605v-50.12h0.026c0,0-0.026-24.499,15.503-46.188    c23.557-32.901,47.145-49.889,47.145-107.889C319.744,117.755,272.302,70.313,213.78,70.313z M224.174,281.359h-20.91v-43.264    c0-7.306-2.519-15.032-4.961-22.508c-2.903-8.888-5.898-18.079-2.708-22.477c2.319-3.2,8.612-4.89,18.186-4.89    c9.6,0,15.882,1.669,18.166,4.823c3.098,4.28,0.118,13.333-2.765,22.088c-2.493,7.588-5.074,15.437-5.074,22.958    C224.107,247.465,224.138,264.474,224.174,281.359z M262.4,276.864c-10.496,14.659-14.822,30.362-16.604,40.95h-2.319v-19.671    c0-6.938-4.214-12.892-10.225-15.447c-0.036-17.316-0.072-34.98-0.072-44.6c0-6.067,2.35-13.215,4.623-20.122    c3.594-10.921,7.306-22.216,1.49-30.249c-4.234-5.852-12.344-8.581-25.518-8.581c-13.148,0-21.258,2.744-25.533,8.632    c-5.903,8.141-2.176,19.574,1.428,30.623c2.222,6.805,4.516,13.834,4.516,19.697v44.662c-5.944,2.581-10.107,8.494-10.107,15.386    v19.671h-2.325c-1.787-10.578-6.113-26.281-16.589-40.94c-4.5-6.298-8.929-11.935-13.21-17.388    c-18.345-23.357-31.596-40.233-31.596-83.205c0-51.512,41.907-93.42,93.42-93.42c51.512,0,93.419,41.907,93.419,93.42    c0,43.023-13.271,59.909-31.642,83.287C271.293,264.991,266.885,270.602,262.4,276.864z" fill="#ffffff"/><path d="M378.783,217.631l-39.383-6.81c-3.036-0.527-5.944,1.516-6.467,4.557c-0.522,3.041,1.516,5.939,4.557,6.467l39.383,6.81    c0.323,0.056,0.645,0.087,0.963,0.087c2.673,0,5.038-1.925,5.504-4.644C383.862,221.051,381.824,218.158,378.783,217.631z" fill="#ffffff"/><path d="M213.78,427.561c11.704,0,21.197-9.492,21.197-21.197h-42.394C192.584,418.074,202.076,427.561,213.78,427.561z" fill="#ffffff"/><path d="M112.445,265.339l-32.819,22.815c-2.534,1.766-3.164,5.248-1.398,7.782c1.085,1.567,2.831,2.401,4.598,2.401    c1.106,0,2.212-0.328,3.19-1.003l32.819-22.82c2.534-1.761,3.164-5.248,1.398-7.782    C118.472,264.197,114.99,263.583,112.445,265.339z" fill="#ffffff"/><path d="M94.628,215.378c-0.522-3.041-3.43-5.084-6.467-4.557l-39.383,6.81c-3.041,0.527-5.079,3.42-4.557,6.467    c0.471,2.719,2.836,4.644,5.504,4.644c0.317,0,0.64-0.026,0.963-0.087l39.383-6.81C93.117,221.312,95.155,218.419,94.628,215.378z    " fill="#ffffff"/></g><g transform="matrix(0.05310293659567833 0 0 0.05310293659567833 165 165)" id="L1_6"><path d="M188.314,364.083c-94.899,0-172.175-75.274-175.483-169.37c-0.072,2.084-0.159,4.168-0.159,6.272    c0,97.003,78.638,175.642,175.642,175.642s175.642-78.638,175.642-175.642c0-2.104-0.087-4.188-0.159-6.272    C360.489,288.804,283.213,364.083,188.314,364.083z" fill="#ffffff"/><path d="M188.314,351.283c97.003,0,175.642-78.638,175.642-175.642S285.317,0,188.314,0S12.672,78.638,12.672,175.642    S91.31,351.283,188.314,351.283z M111.258,306.755l50.458-86.149c7.506,4.495,16.251,7.127,25.636,7.127    c9.385,0,18.13-2.632,25.636-7.127l49.971,85.309C217.779,332.6,159.933,334.858,111.258,306.755z M262.953,44.012    c45.701,25.774,76.58,74.742,76.58,130.949l-102.236,1.244c-0.543-18.14-10.701-33.848-25.595-42.173L262.953,44.012z     M224.046,177.71c0,20.27-16.43,36.7-36.7,36.7c-20.27,0-36.7-16.43-36.7-36.7s16.43-36.7,36.7-36.7    C207.616,141.01,224.046,157.44,224.046,177.71z M111.258,43.167L163,134.031c-14.894,8.32-25.057,24.028-25.595,42.173    l-101.263-1.244C35.615,122.496,62.582,71.27,111.258,43.167z" fill="#ffffff"/></g><g transform="matrix(0.10613373667001724 0 0 0.10613373667001724 242.5 67.5)" id="L1_7"><path d="M129.756,114.852c0.963-0.256,3.64-0.855,7.69-0.855c5.535,0,14.29,1.152,24.586,6.641    c18.15,9.682,22.774,22.164,23.516,24.571l1.377,4.47c35.727-1.838,64.154-31.299,64.154-67.487    c0-37.371-30.295-67.661-67.661-67.661s-67.666,30.295-67.666,67.661c0,12.385,3.384,23.956,9.196,33.946L129.756,114.852z     M159.785,36.659c7.608,0,13.773,6.17,13.773,13.773s-6.164,13.773-13.773,13.773c-7.608,0-13.773-6.164-13.773-13.773    C146.012,42.824,152.177,36.659,159.785,36.659z" fill="#ffffff"/><path d="M312.776,227.21l0.164,0.292l-3.251,6.072c-0.722,1.341-7.47,13.338-22.671,21.187    c-14.899,7.695-26.383,8.084-28.539,8.084h-7.342l-0.794-1.418c-5.565,9.83-8.781,21.161-8.781,33.265    c0,37.371,30.295,67.661,67.661,67.661c37.371,0,67.661-30.295,67.661-67.661C376.883,258.524,348.483,229.069,312.776,227.21z     M275.164,304.855c-7.608,0-13.773-6.164-13.773-13.773s6.164-13.773,13.773-13.773c7.608,0,13.773,6.164,13.773,13.773    C288.937,298.685,282.767,304.855,275.164,304.855z" fill="#ffffff"/><path d="M131.425,272.399L131.425,272.399c-2.458,0-4.444,9.979-4.444,22.293s1.992,22.292,4.444,22.292h100.808    c-2.058-7.086-3.215-14.551-3.215-22.292c0-7.562,1.183-15.058,3.292-22.293H131.425z" fill="#ffffff"/><path d="M207.012,158.7l51.461,91.602c0,0,9.738,0.051,22.789-6.687c12.175-6.287,17.367-15.969,17.367-15.969l-53.202-94.7    C235.576,144.952,222.295,154.01,207.012,158.7z" fill="#ffffff"/><path d="M126.167,260.813c-11.709-20.178-33.495-33.782-58.506-33.782C30.295,227.031,0,257.326,0,294.692    c0,37.366,30.295,67.661,67.661,67.661c25.011,0,46.797-13.604,58.506-33.782c-10.388-4.122-11.735-20.864-11.735-33.879    C114.432,281.677,115.779,264.934,126.167,260.813z M41.001,283.336c-7.608,0-13.773-6.17-13.773-13.773    c0-7.603,6.164-13.773,13.773-13.773c7.608,0,13.773,6.164,13.773,13.773C54.774,277.171,48.609,283.336,41.001,283.336z" fill="#ffffff"/><path d="M173.558,148.905c0,0-2.918-9.462-17.428-17.203c-13.645-7.276-23.122-4.736-23.122-4.736l-48.353,89.39    c15.309,3.359,29.353,11.162,40.32,22.369L173.558,148.905z" fill="#ffffff"/></g><g transform="matrix(0.15690705180168152 0 0 0.15690705180168152 85 6.000000191536856)" id="L1_10"><path d="M271.887,165.066c2.847,0,6.031,0.763,9.549,2.289l3.026-7.956c-3.835-1.756-8.115-2.637-12.836-2.637    c-4.869,0-9.226,1.377-13.061,4.132c-3.835,2.755-6.81,6.569-8.929,11.459c-2.12,4.884-3.18,10.312-3.18,16.282    c0,5.678,1.556,10.04,4.674,13.097c3.108,3.057,7.491,4.582,13.143,4.582c4.756,0,9.149-1.024,13.189-3.072v-8.433    c-1.874,0.927-3.738,1.7-5.601,2.335c-1.859,0.635-3.855,0.952-5.99,0.952c-2.847,0-5.084-0.865-6.702-2.596    c-1.613-1.731-2.417-4.193-2.417-7.393c0-6.513,1.439-11.981,4.321-16.41C263.962,167.278,267.566,165.066,271.887,165.066z" fill="#ffffff"/><path d="M220.523,205.448h10.158l6.052-28.232c0.635-3.374,0.952-5.98,0.952-7.823c0-4.004-1.004-7.117-3.005-9.318    c-2.002-2.207-4.92-3.307-8.755-3.307c-2.97,0-5.832,0.86-8.576,2.575c-2.755,1.715-5.212,4.244-7.378,7.583h-0.343    c-0.978-6.774-4.644-10.158-10.982-10.158c-5.883,0-10.957,3.241-15.222,9.728h-0.389l0.911-8.863h-7.956l-10.199,47.821h10.199    l4.239-20.275c1.295-6.083,3.292-10.957,5.99-14.612c2.688-3.661,5.627-5.489,8.791-5.489c3.374,0,5.059,1.946,5.059,5.837    c0,1.295-0.246,3.123-0.737,5.489l-6.18,29.056h10.158l4.367-20.797c1.239-5.908,3.205-10.65,5.898-14.223    c2.698-3.574,5.601-5.361,8.709-5.361c3.492,0,5.233,1.859,5.233,5.576c0,1.096-0.271,3.016-0.819,5.75L220.523,205.448z" fill="#ffffff"/><path d="M32.625,46.856 349.763,46.856 349.763,294.275 362.588,294.275 362.588,34.03 19.799,34.03 19.799,294.275     32.625,294.275z" fill="#ffffff"/><rect x="120px" y="161px" width="40px" height="7px" fill="#ffffff"/><path d="M302.085,162.967c3.548-3.057,6.052-5.709,7.516-7.946c1.464-2.232,2.191-4.634,2.191-7.188    c0-2.857-0.942-5.12-2.821-6.799c-1.889-1.674-4.367-2.509-7.444-2.509c-5.161,0-9.708,1.859-13.645,5.571l4.69,6.508    c2.708-2.473,5.069-3.707,7.091-3.707c0.676,0,1.229,0.205,1.664,0.614c0.43,0.415,0.655,1.029,0.655,1.853    c0,2.355-2.084,5.386-6.257,9.103l-12.18,10.998l-1.336,6.456h25.344l1.715-8.223h-12.36v-0.302L302.085,162.967z" fill="#ffffff"/><rect x="0px" y="305px" width="382px" height="43px" fill="#ffffff"/><rect x="120px" y="179px" width="40px" height="7px" fill="#ffffff"/><rect x="52px" y="269px" width="64px" height="24px" fill="#ffffff"/><path d="M84.808,142.241 84.808,142.236 71.45,205.448 105.001,205.448 106.859,196.672 83.558,196.672 87.711,176.96     109.501,176.96 111.273,168.184 89.564,168.184 93.194,151.104 116.506,151.104 118.364,142.241z" fill="#ffffff"/></g><g transform="matrix(0.1574084311723709 0 0 0.1574084311723709 277.99999988471063 282)" id="L1_11"><path d="M117.071,75.587c-33.219-5.678-64.747,16.65-70.426,49.864c-5.678,33.219,16.65,64.748,49.864,70.426    c33.219,5.678,64.748-16.65,70.426-49.864C172.613,112.794,150.285,81.265,117.071,75.587z M132.626,140.15    c-2.437,14.269-15.985,23.859-30.254,21.422c-14.269-2.437-23.859-15.985-21.422-30.254c2.437-14.269,15.985-23.859,30.254-21.422    C125.473,112.333,135.068,125.88,132.626,140.15z" fill="#ffffff"/><path d="M251.891,219.668c-33.7,0-61.015,27.32-61.015,61.015c0,33.695,27.32,61.015,61.015,61.015    c33.695,0,61.015-27.32,61.015-61.015C312.906,246.989,285.586,219.668,251.891,219.668z M251.891,306.898    c-14.474,0-26.214-11.735-26.214-26.214c0-14.474,11.735-26.214,26.214-26.214c14.474,0,26.214,11.735,26.214,26.214    C278.1,295.158,266.365,306.898,251.891,306.898z" fill="#ffffff"/><path d="M340.969,280.683c0-7.352-0.988-14.459-2.668-21.299l11.182-2.744c-2.621-10.665-6.958-20.777-12.892-30.054l-9.677,6.19    c-6.118-9.559-13.998-17.853-23.204-24.458l6.697-9.339c-8.95-6.42-18.816-11.29-29.317-14.474l-3.318,10.947    c-8.192-2.483-16.876-3.845-25.876-3.845v-11.412c-11.034,0-21.883,1.782-32.251,5.289l3.686,10.88    c-10.865,3.681-20.782,9.375-29.307,16.676l-7.46-8.714c-8.351,7.148-15.432,15.555-21.043,24.981l9.887,5.893    c-5.704,9.564-9.636,20.27-11.418,31.718l-11.382-1.766c-0.794,5.105-1.198,10.332-1.198,15.534c0,5.74,0.492,11.5,1.454,17.116    l11.341-1.946c1.961,11.407,6.083,22.047,11.94,31.529l-9.795,6.047c5.765,9.339,12.979,17.628,21.437,24.643l7.291-8.791    c8.637,7.163,18.657,12.703,29.589,16.21l-3.497,10.895c9.902,3.18,20.239,4.787,30.725,4.787c0.532,0,1.065-0.005,1.597-0.01    l-0.179-11.469c11.694-0.184,22.845-2.57,33.029-6.845l4.419,10.527c10.112-4.245,19.425-10.097,27.674-17.388l-7.619-8.617    c8.453-7.475,15.462-16.512,20.593-26.685l10.271,5.176c4.951-9.82,8.228-20.326,9.743-31.222l-11.402-1.587    C340.58,288.998,340.969,284.892,340.969,280.683z M251.891,350.008c-38.287,0-69.325-31.037-69.325-69.325    c0-38.287,31.037-69.325,69.325-69.325s69.325,31.037,69.325,69.325S290.173,350.008,251.891,350.008z" fill="#ffffff"/><path d="M153.633,211.395c9.595-5.944,18.022-13.67,24.796-22.835l9.252,6.83c6.533-8.847,11.535-18.647,14.863-29.138    l-10.972-3.487c1.239-3.896,2.319-7.88,3.026-12.027c1.239-7.25,1.459-14.423,0.957-21.443l11.484-0.824    c-0.789-10.957-3.359-21.652-7.649-31.8l-10.583,4.475c-4.419-10.455-10.793-19.958-18.749-28.017l8.177-8.074    c-7.741-7.839-16.645-14.3-26.46-19.21l-5.115,10.23c-7.659-3.83-15.985-6.635-24.858-8.151l1.92-11.243    c-10.875-1.859-21.873-1.93-32.681-0.22l1.802,11.346c-11.331,1.797-22.062,5.74-31.698,11.5l-5.888-9.846    c-9.436,5.642-17.828,12.733-24.955,21.074l8.755,7.47c-7.229,8.469-12.913,18.36-16.599,29.343l-10.921-3.661    c-1.644,4.9-2.918,9.984-3.794,15.109c-0.968,5.658-1.454,11.418-1.449,17.116L17.8,135.9c0.01,11.571,2.278,22.753,6.456,33.091    l-10.67,4.311c4.111,10.173,9.825,19.563,16.983,27.899l8.668-7.434c7.306,8.515,16.251,15.662,26.435,20.961l-5.294,10.163    c9.226,4.803,19.144,8.131,29.481,9.897c0.527,0.092,1.05,0.174,1.577,0.256l1.756-11.336c11.556,1.787,22.953,1.316,33.71-1.183    l2.581,11.126c10.685-2.478,20.849-6.677,30.203-12.477L153.633,211.395z M95.035,204.524    c-37.99-6.492-63.529-42.557-57.032-80.548c6.492-37.99,42.557-63.524,80.548-57.032c37.99,6.492,63.529,42.557,57.032,80.548    C169.085,185.482,133.025,211.016,95.035,204.524z" fill="#ffffff"/><path d="M365.663,90.634c0.43-3.277,0.722-6.595,0.701-9.994c-0.046-5.939-0.886-11.674-2.284-17.188l9.016-2.284    c-2.181-8.602-5.745-16.742-10.593-24.202l-7.777,5.059c-4.997-7.685-11.412-14.336-18.888-19.615l5.356-7.583    c-7.265-5.13-15.268-9.006-23.767-11.52l-2.616,8.863c-1.659-0.492-3.338-0.922-5.043-1.295c-5.115-1.116-10.424-1.7-15.882-1.659    L293.819,0c-8.914,0.067-17.664,1.567-26.02,4.465l3.041,8.771c-8.755,3.036-16.732,7.695-23.572,13.645l-6.098-6.994    c-6.702,5.827-12.37,12.657-16.85,20.301l8.023,4.7c-4.547,7.762-7.665,16.43-9.032,25.687l-9.206-1.362    c-0.609,4.132-0.906,8.356-0.87,12.554c0.036,4.639,0.466,9.288,1.275,13.819l9.149-1.644c1.654,9.201,5.043,17.772,9.83,25.395    l-7.875,4.946c4.716,7.506,10.588,14.162,17.464,19.779l5.837-7.142c7.02,5.734,15.145,10.148,23.997,12.918l-2.76,8.822    c8.018,2.509,16.379,3.748,24.847,3.686c0.43-0.005,0.86-0.01,1.29-0.021l-0.215-9.262c9.441-0.22,18.442-2.212,26.639-5.729    l3.635,8.479c8.146-3.492,15.631-8.269,22.246-14.213l-6.205-6.917c6.784-6.088,12.39-13.43,16.476-21.678l8.325,4.122    c3.937-7.962,6.523-16.466,7.685-25.277L365.663,90.634z M313.971,89.272c-1.055,2.54-2.586,4.833-4.49,6.764    c-3.804,3.86-9.078,6.267-14.925,6.313c-11.694,0.087-21.243-9.323-21.33-21.018s9.323-21.243,21.018-21.33    c11.694-0.087,21.243,9.324,21.33,21.018C315.599,83.942,315.026,86.733,313.971,89.272z" fill="#ffffff"/></g><g transform="matrix(0.14981497824192047 0 0 0.14981497824192047 45 144.9999995793769)" id="L1_12"><path d="M191.598,77.998c-5.985-4.654-11.863-8.755-17.567-12.191c-28.523,25.851-51.702,57.764-70.001,91.505    c2.437,9.365,5.432,18.898,9.032,28.488c10.972-23.634,24.622-46.039,40.515-66.678    C164.897,104.263,177.574,90.352,191.598,77.998z" fill="#ffffff"/><path d="M310.208,253.578c6.927-2.77,13.414-5.821,19.451-9.144c-2.053-9.313-4.71-18.898-7.926-28.657    c-3.989,9.59-8.535,19.123-13.578,28.544C308.984,247.48,309.65,250.526,310.208,253.578z" fill="#ffffff"/><path d="M90.278,146.498c-6.927,2.77-13.414,5.821-19.451,9.144c8.248,37.458,23.931,74.01,44.396,106.414    c9.257,2.55,18.954,4.71,29.041,6.318c-11.924-17.085-22.385-35.205-31.201-54.093c-8.786-18.642-16.271-38.374-20.731-58.527    C91.502,152.596,90.836,149.55,90.278,146.498z" fill="#ffffff"/><path d="M308.155,155.755c-8.899,40.264-28.462,78.971-51.932,112.619c10.143-1.72,19.896-3.881,29.21-6.482    c19.912-32.788,35.799-68.362,44.175-105.912c-5.873-3.272-12.36-6.374-19.456-9.257    C309.599,149.657,308.989,152.709,308.155,155.755z" fill="#ffffff"/><path d="M289.923,44.687c14.797,8.535,23.444,29.153,24.387,57.252c7.316,2.493,14.357,5.263,21.059,8.259    c0.568-28.334-5.228-61.752-29.373-79.877c-28.616-21.484-68.27-9.4-95.718,7.936c5.929,4.157,11.807,8.812,17.623,13.911    C243.976,43.525,270.246,33.326,289.923,44.687z" fill="#ffffff"/><path d="M168.988,117.463c10.25-0.947,20.674-1.388,31.258-1.388c10.808,0,21.228,0.445,31.314,1.331    c-6.651-8.09-13.414-15.406-20.173-22.057c-7.368-0.225-14.746-0.225-22.113,0C182.346,102.113,175.583,109.48,168.988,117.463z" fill="#ffffff"/><path d="M86.182,102.108c0.625-19.825,5.059-45.348,23.388-56.817c20.818-13.025,49.106-1.198,67.994,9.789    c49.388,28.739,86.088,79.713,109.865,130.662c3.604-9.59,6.595-19.067,9.032-28.431c-15.882-29.281-35.395-56.904-58.752-80.717    c-22.533-22.968-49.69-44.216-80.896-53.642c-24.95-7.537-52.9-5.069-70.994,15.386c-17.091,19.318-21.228,47.186-20.695,72.079    C71.831,107.427,78.866,104.601,86.182,102.108z" fill="#ffffff"/><path d="M182.413,247.91c5.627,2.14,11.643,3.231,17.669,3.231c25.354,0,47.237-19.886,49.562-45.153    c2.324-25.277-15.447-48.932-40.448-53.555c-24.991-4.623-50.171,10.972-57.037,35.466    C145.288,212.398,158.625,238.873,182.413,247.91z" fill="#ffffff"/><path d="M226.46,334.274C223.634,336.936,233.556,327.848,226.46,334.274L226.46,334.274z" fill="#ffffff"/><path d="M191.598,322.083c-2.33-2.053-4.71-4.214-7.096-6.431c-10.752-0.389-21.228-1.219-31.37-2.493    c6.815,7.649,13.798,14.74,20.895,21.115C179.904,330.782,185.782,326.681,191.598,322.083z" fill="#ffffff"/><path d="M314.309,297.973c-0.609,19.267-4.721,43.31-21.448,55.506c-19.123,13.937-46.362,4.234-64.906-5.678    c-5.821,5.043-11.75,9.754-17.679,14.024c27.843,16.881,66.693,29.629,95.647,7.997c24.284-18.14,30.049-51.738,29.445-80.159    C328.66,292.654,321.626,295.423,314.309,297.973z" fill="#ffffff"/><path d="M247.355,313.103c-10.307,1.275-20.782,2.161-31.427,2.493c-12.846,12.544-27.52,23.793-43.341,32.312    c-14.254,7.67-31.083,14.182-47.549,12.186c-34.319-4.152-40.12-45.937-38.968-73.651v-0.276    c0.558-14.054,2.627-28.349,6.205-41.953c-4.987-9.421-9.533-18.898-13.522-28.431c-8.991,27.279-14.766,56.315-13.512,85.146    c0.963,22.17,6.415,46.1,22.231,62.602c40.341,42.081,105.841,1.946,138.988-29.256    C233.556,327.843,240.54,320.752,247.355,313.103z" fill="#ffffff"/><path d="M345.626,127.894c3.818,2.105,30.116,16.569-0.223-0.125c-0.271-0.148-0.287-0.156-0.104-0.055    c-21.968-12.026-46.194-19.967-70.67-24.997c6.262,8.202,12.247,16.85,17.9,25.938c28.493,8.141,61.158,22.431,78.7,47.503    c6.815,9.743,10.307,21.33,7.224,33.085c-3.292,12.575-12.534,22.815-22.364,30.868c-23.03,18.872-52.731,29.604-81.49,35.953    c-33.234,7.337-67.63,9.472-101.555,6.943c-24.986-1.864-50.473-6.072-74.168-14.408c-0.998,7.055-1.772,14.208-1.772,21.34    c40.591,12.795,84.04,16.835,126.418,14.239c41.59-2.55,85.258-11.295,121.882-31.974c26.967-13.481,55.091-39.864,55.091-72.161    C400.494,167.024,372.241,142.592,345.626,127.894z" fill="#ffffff"/><path d="M24.041,185.052c10.737-25.032,40.228-40.412,64.251-49.638c6.385-2.632,13.015-4.89,19.676-6.707    c5.596-9.032,11.638-17.736,17.956-25.994c-24.443,5.023-49.029,12.856-70.83,25.16c-1.111,0.553-2.161,1.111-3.215,1.772h-0.056    c-25.861,14.915-52.613,39.424-51.804,71.788c0.809,32.492,28.764,56.397,55.076,70.876c0.666-7.316,1.771-14.797,3.215-22.333    C36.682,236.636,12.157,212.746,24.041,185.052z" fill="#ffffff"/></g></defs><g fi:class="KUsePattern"><pattern id="pattern_L1_4" width="350" height="350" patternUnits="userSpaceOnUse"><use xlink:href="#L1_4" x="-350" y="-350"/><use xlink:href="#L1_4" x="0" y="-350"/><use xlink:href="#L1_4" x="350" y="-350"/><use xlink:href="#L1_4" x="-350" y="0"/><use xlink:href="#L1_4" x="0" y="0"/><use xlink:href="#L1_4" x="350" y="0"/><use xlink:href="#L1_4" x="-350" y="350"/><use xlink:href="#L1_4" x="0" y="350"/><use xlink:href="#L1_4" x="350" y="350"/></pattern><rect x="0" y="0" width="100%" height="100%" fill="url(#pattern_L1_4)"/></g><g fi:class="KUsePattern"><pattern id="pattern_L1_5" width="350" height="350" patternUnits="userSpaceOnUse"><use xlink:href="#L1_5" x="-350" y="-350"/><use xlink:href="#L1_5" x="0" y="-350"/><use xlink:href="#L1_5" x="350" y="-350"/><use xlink:href="#L1_5" x="-350" y="0"/><use xlink:href="#L1_5" x="0" y="0"/><use xlink:href="#L1_5" x="350" y="0"/><use xlink:href="#L1_5" x="-350" y="350"/><use xlink:href="#L1_5" x="0" y="350"/><use xlink:href="#L1_5" x="350" y="350"/></pattern><rect x="0" y="0" width="100%" height="100%" fill="url(#pattern_L1_5)"/></g><g fi:class="KUsePattern"><pattern id="pattern_L1_6" width="350" height="350" patternUnits="userSpaceOnUse"><use xlink:href="#L1_6" x="-350" y="-350"/><use xlink:href="#L1_6" x="0" y="-350"/><use xlink:href="#L1_6" x="350" y="-350"/><use xlink:href="#L1_6" x="-350" y="0"/><use xlink:href="#L1_6" x="0" y="0"/><use xlink:href="#L1_6" x="350" y="0"/><use xlink:href="#L1_6" x="-350" y="350"/><use xlink:href="#L1_6" x="0" y="350"/><use xlink:href="#L1_6" x="350" y="350"/></pattern><rect x="0" y="0" width="100%" height="100%" fill="url(#pattern_L1_6)"/></g><g fi:class="KUsePattern"><pattern id="pattern_L1_7" width="350" height="350" patternUnits="userSpaceOnUse"><use xlink:href="#L1_7" x="-350" y="-350"/><use xlink:href="#L1_7" x="0" y="-350"/><use xlink:href="#L1_7" x="350" y="-350"/><use xlink:href="#L1_7" x="-350" y="0"/><use xlink:href="#L1_7" x="0" y="0"/><use xlink:href="#L1_7" x="350" y="0"/><use xlink:href="#L1_7" x="-350" y="350"/><use xlink:href="#L1_7" x="0" y="350"/><use xlink:href="#L1_7" x="350" y="350"/></pattern><rect x="0" y="0" width="100%" height="100%" fill="url(#pattern_L1_7)"/></g><g fi:class="KUsePattern"><pattern id="pattern_L1_10" width="350" height="350" patternUnits="userSpaceOnUse"><use xlink:href="#L1_10" x="-350" y="-350"/><use xlink:href="#L1_10" x="0" y="-350"/><use xlink:href="#L1_10" x="350" y="-350"/><use xlink:href="#L1_10" x="-350" y="0"/><use xlink:href="#L1_10" x="0" y="0"/><use xlink:href="#L1_10" x="350" y="0"/><use xlink:href="#L1_10" x="-350" y="350"/><use xlink:href="#L1_10" x="0" y="350"/><use xlink:href="#L1_10" x="350" y="350"/></pattern><rect x="0" y="0" width="100%" height="100%" fill="url(#pattern_L1_10)"/></g><g fi:class="KUsePattern"><pattern id="pattern_L1_11" width="350" height="350" patternUnits="userSpaceOnUse"><use xlink:href="#L1_11" x="-350" y="-350"/><use xlink:href="#L1_11" x="0" y="-350"/><use xlink:href="#L1_11" x="350" y="-350"/><use xlink:href="#L1_11" x="-350" y="0"/><use xlink:href="#L1_11" x="0" y="0"/><use xlink:href="#L1_11" x="350" y="0"/><use xlink:href="#L1_11" x="-350" y="350"/><use xlink:href="#L1_11" x="0" y="350"/><use xlink:href="#L1_11" x="350" y="350"/></pattern><rect x="0" y="0" width="100%" height="100%" fill="url(#pattern_L1_11)"/></g><g fi:class="KUsePattern"><pattern id="pattern_L1_12" width="350" height="350" patternUnits="userSpaceOnUse"><use xlink:href="#L1_12" x="-350" y="-350"/><use xlink:href="#L1_12" x="0" y="-350"/><use xlink:href="#L1_12" x="350" y="-350"/><use xlink:href="#L1_12" x="-350" y="0"/><use xlink:href="#L1_12" x="0" y="0"/><use xlink:href="#L1_12" x="350" y="0"/><use xlink:href="#L1_12" x="-350" y="350"/><use xlink:href="#L1_12" x="0" y="350"/><use xlink:href="#L1_12" x="350" y="350"/></pattern><rect x="0" y="0" width="100%" height="100%" fill="url(#pattern_L1_12)"/></g></svg>